<svg width="24rem" height="24rem" viewBox="0 0 24 24" fill="none" xmlns="http://www.w3.org/2000/svg">
<path d="M17.7692 9.88108L12.5535 15.2626C12.4808 15.3378 12.3945 15.3975 12.2994 15.4383C12.2043 15.479 12.1023 15.5 11.9993 15.5C11.8964 15.5 11.7944 15.479 11.6993 15.4383C11.6042 15.3975 11.5179 15.3378 11.4452 15.2626L6.22954 9.88108C6.08257 9.72943 6 9.52376 6 9.3093C6 9.09484 6.08257 8.88916 6.22954 8.73751C6.37651 8.58587 6.57585 8.50067 6.7837 8.50067C6.99155 8.50067 7.19089 8.58587 7.33787 8.73751L12 13.5479L16.6621 8.73684C16.8091 8.58519 17.0084 8.5 17.2163 8.5C17.4241 8.5 17.6235 8.58519 17.7705 8.73684C17.9174 8.88849 18 9.09416 18 9.30862C18 9.52309 17.9174 9.72876 17.7705 9.88041L17.7692 9.88108Z" fill="#425983"/>
</svg>
