<svg width="42rem" height="42rem" viewBox="0 0 42 42" fill="none" xmlns="http://www.w3.org/2000/svg">
<rect width="42" height="42" rx="12" fill="url(#paint0_linear_2001_929)"/>
<path d="M16.1875 32.1563C15.3371 32.1563 15.4816 31.8351 15.1883 31.0254L12.6875 22.795L31.9375 11.375" fill="#C8DAEA"/>
<path d="M16.1875 32.1563C16.8438 32.1563 17.1337 31.8562 17.5 31.5001L21 28.0968L16.6342 25.4641" fill="#A9C9DD"/>
<path d="M16.6337 25.4646L27.2124 33.2803C28.4196 33.9464 29.2909 33.6015 29.5916 32.1595L33.8977 11.8676C34.3385 10.1001 33.2239 9.29839 32.069 9.82269L6.78374 19.5726C5.05778 20.2649 5.06784 21.2278 6.46913 21.6568L12.9579 23.6821L27.9801 14.2048C28.6893 13.7747 29.3402 14.0059 28.806 14.48" fill="url(#paint1_linear_2001_929)"/>
<defs>
<linearGradient id="paint0_linear_2001_929" x1="28.0014" y1="7.0014" x2="17.5014" y2="31.5" gradientUnits="userSpaceOnUse">
<stop stop-color="#37AEE2"/>
<stop offset="1" stop-color="#1E96C8"/>
</linearGradient>
<linearGradient id="paint1_linear_2001_929" x1="24.2823" y1="20.1246" x2="28.3902" y2="29.4724" gradientUnits="userSpaceOnUse">
<stop stop-color="#EFF7FC"/>
<stop offset="1" stop-color="white"/>
</linearGradient>
</defs>
</svg>
